<svg xmlns="http://www.w3.org/2000/svg" width="512" height="128" viewBox="0 0 512 128"><defs><linearGradient id="g" x1="0" y1="0" x2="1" y2="0"><stop stop-color="#d9bd86"/><stop offset=".3" stop-color="#8b6540"/><stop offset=".58" stop-color="#3c454a"/><stop offset="1" stop-color="#151b1f"/></linearGradient></defs><g transform="translate(16 8)" stroke="#090d10" stroke-width="7" stroke-linejoin="round"><path d="M16 42 L356 34 L430 48 L482 67 L428 88 L158 92 L116 116 L58 110 L90 86 L16 80Z" fill="url(#g)"/><rect x="205" y="40" width="142" height="34" rx="5" fill="#323b40"/><path d="M365 36 L458 51 L486 66 L432 85 L366 81Z" fill="#b47b47"/><path d="M130 84 L200 82 L179 120 L116 120Z" fill="#252d31"/><rect x="257" y="50" width="58" height="8" rx="4" fill="#e6c17e"/><path d="M228 60 L336 58" stroke="#a97546" stroke-width="5"/></g></svg>