<svg xmlns="http://www.w3.org/2000/svg" width="2048" height="2048" viewBox="0 0 2048 2048">
<defs>
 <linearGradient id="coat" x1="0" y1="0" x2="1" y2="1"><stop stop-color="#46758b"/><stop offset=".26" stop-color="#264c60"/><stop offset=".62" stop-color="#152f40"/><stop offset="1" stop-color="#0b1923"/></linearGradient>
 <linearGradient id="coatHi" x1="0" y1="0" x2="0" y2="1"><stop stop-color="#8fdce8" stop-opacity=".34"/><stop offset=".4" stop-color="#4bb4c8" stop-opacity=".10"/><stop offset="1" stop-color="#07131b" stop-opacity=".30"/></linearGradient>
 <linearGradient id="hair" x1="0" y1="0" x2="1" y2="1"><stop stop-color="#ffffff"/><stop offset=".26" stop-color="#e2e9f3"/><stop offset=".63" stop-color="#aebbd0"/><stop offset="1" stop-color="#687992"/></linearGradient>
 <linearGradient id="hairShade" x1="0" y1="0" x2="0" y2="1"><stop stop-color="#dce6f4"/><stop offset="1" stop-color="#7789a2"/></linearGradient>
 <linearGradient id="gun" x1="0" y1="0" x2="1" y2="0"><stop stop-color="#eaf4f7"/><stop offset=".18" stop-color="#9dafb8"/><stop offset=".46" stop-color="#526975"/><stop offset=".76" stop-color="#243640"/><stop offset="1" stop-color="#0c151b"/></linearGradient>
 <linearGradient id="skin" x1="0" y1="0" x2=".8" y2="1"><stop stop-color="#ffe7da"/><stop offset=".62" stop-color="#ebc9bb"/><stop offset="1" stop-color="#cfaa9d"/></linearGradient>
</defs>
<!-- head -->
<g transform="translate(256 256)" stroke="#14242d" stroke-width="6.5" stroke-linejoin="round" stroke-linecap="round">
 <ellipse rx="126" ry="142" fill="url(#skin)"/>
 <path d="M-106-19 Q-89-131 0-147 Q107-134 113-13 Q71-72 14-83 Q-50-55-106-19Z" fill="url(#hair)"/>
 <path d="M-91-63 Q-27-145 54-116 L-4 37 L-79 48Z" fill="#edf3fa"/>
 <path d="M62-112 Q109-78 111-17 L77 13 L55-88Z" fill="url(#hairShade)"/>
 <path d="M-80-87 Q-22-124 44-111" fill="none" stroke="#ffffff" stroke-width="5" opacity=".52"/>
 <path d="M-69 13 Q-36-10-5 16 Q-36 38-69 13 M24 14 Q58-9 90 16 Q58 39 24 14" fill="#24374d" stroke="none"/>
 <path d="M-57 13 Q-33 4-10 15 M34 14 Q58 5 81 16" fill="none" stroke="#9beef6" stroke-width="3.5" opacity=".7"/>
 <circle cx="-31" cy="16" r="5.4" fill="#72e6f4" stroke="#d9ffff" stroke-width="2"/><circle cx="58" cy="16" r="5.4" fill="#72e6f4" stroke="#d9ffff" stroke-width="2"/>
 <path d="M-4 37 L-9 56 L4 59" fill="none" stroke="#b98f88" stroke-width="3.5" opacity=".7"/>
 <path d="M-20 81 Q8 96 40 77" stroke="#a86168" stroke-width="5" fill="none"/>
 <path d="M77-89 L112-73 L101-39 L68-51Z" fill="#5ed5e5" stroke="#e9bc61" stroke-width="4"/><path d="M82-82 L102-70" stroke="#efffff" stroke-width="3" opacity=".75"/>
</g>
<!-- comet ponytail / hair -->
<g transform="translate(768 256)" stroke="#14242d" stroke-width="6.5" stroke-linejoin="round" stroke-linecap="round">
 <path d="M-152-70 Q-54-172 72-118 Q157-79 151 20 Q145 118 15 201 Q73 81 30-11 Q-12-101-152-70Z" fill="url(#hair)"/>
 <path d="M-81-102 Q24-142 91-72 Q117-5 67 97 Q76 6 16-58Z" fill="#a8b8d1" stroke="none"/>
 <path d="M-130-31 L-15-128 L64-84 L-46 43Z" fill="#e7eef7"/>
 <path d="M-103-54 Q-17-123 58-94" fill="none" stroke="#ffffff" stroke-width="5" opacity=".5"/>
 <path d="M13-86 Q87-47 105 35" stroke="#55d1e3" stroke-width="9" fill="none"/><path d="M24-73 Q72-43 82 16" stroke="#b8f8ff" stroke-width="3.5" fill="none" opacity=".75"/>
</g>
<!-- torso precision jacket -->
<g transform="translate(1280 256)" stroke="#14242d" stroke-width="7" stroke-linejoin="round">
 <path d="M-142-121 Q0-173 141-114 L163 118 Q8 181-156 111Z" fill="url(#coat)"/>
 <path d="M-124-97 Q0-135 122-92 L131 88 Q5 131-132 89Z" fill="url(#coatHi)" stroke="none"/>
 <path d="M-127 43 L-181 151 L-62 112Z" fill="#347d96"/>
 <path d="M78-107 L176-73 L150 13 L61-17Z" fill="#318fa6"/>
 <path d="M91-91 L154-69 L144-40 L85-53Z" fill="#e1ae53" stroke="#f6d98a" stroke-width="3.5"/>
 <path d="M-80-40 L63-53" stroke="#57cadb" stroke-width="6"/><path d="M-57 45 L72 31" stroke="#98edf3" stroke-width="3.5" opacity=".72"/>
 <path d="M-115-74 L-29-91 L-6-55 L-92-37Z" fill="#101f29" opacity=".65" stroke="none"/><path d="M-104-66 L-36-80" stroke="#7399aa" stroke-width="3" opacity=".65"/>
 <rect x="32" y="43" width="72" height="35" rx="7" fill="#10222c" stroke="#4aaec1" stroke-width="3"/><path d="M43 57 L91 52" stroke="#8be9f1" stroke-width="3"/>
</g>
<!-- pelvis / jacket skirt -->
<g transform="translate(1792 256)" stroke="#14242d" stroke-width="6.5" stroke-linejoin="round">
 <path d="M-130-79 Q0-116 130-73 L114 108 Q0 151-138 91Z" fill="#173646"/>
 <path d="M-113-58 Q0-83 112-55 L100 75 Q-3 110-119 76Z" fill="#28596b" opacity=".55" stroke="none"/>
 <path d="M-108 54 L-164 188 L-24 112Z" fill="#398ba3"/><path d="M-96 74 L-132 155" stroke="#8be8ef" stroke-width="4" opacity=".55"/>
 <path d="M76 42 L153 160 L62 118Z" fill="#193d4c"/>
 <rect x="-94" y="-13" width="188" height="24" rx="9" fill="#0d1920"/><rect x="-19" y="-22" width="38" height="40" rx="6" fill="#e6b455" stroke="#f6d88a" stroke-width="3"/>
</g>
<!-- arms -->
<g transform="translate(256 768)" stroke="#14242d" stroke-width="6"><path d="M-29-42 Q39-60 162-11 L153 37 Q46 77-34 34Z" fill="#28566a"/><path d="M-7-25 Q56-38 127-14 L120 20 Q54 43-17 26Z" fill="#5b8ea0" opacity=".4" stroke="none"/><path d="M91-30 L163-8 L153 36 L83 20Z" fill="#45b3c5"/><path d="M15 5 L102 9" stroke="#92edf3" stroke-width="3.5"/></g>
<g transform="translate(768 768)" stroke="#14242d" stroke-width="5.5"><path d="M-21-32 Q59-45 158-8 L152 28 Q65 56-22 29Z" fill="url(#skin)"/><rect x="70" y="-20" width="72" height="16" rx="5" fill="#cfdce3"/><path d="M76-15 L132-9" stroke="#f8ffff" stroke-width="3"/><path d="M93 15 L143 18" stroke="#4cc9da" stroke-width="4"/></g>
<g transform="translate(1280 768)" stroke="#14242d" stroke-width="6"><path d="M-30-44 Q36-62 165-12 L153 39 Q43 79-35 34Z" fill="#336b80"/><path d="M-8-27 Q52-39 132-14 L123 19 Q54 44-17 27Z" fill="#6fa5b4" opacity=".35" stroke="none"/><path d="M89-34 L168-9 L154 38 L79 19Z" fill="#49b4c6"/><path d="M8 2 L96 6" stroke="#8ae9ef" stroke-width="3.5"/></g>
<g transform="translate(1792 768)" stroke="#14242d" stroke-width="5.5"><path d="M-21-32 Q61-44 158-8 L151 28 Q65 54-20 29Z" fill="url(#skin)"/><path d="M76-21 L147-5" stroke="#4fc8da" stroke-width="7"/><circle cx="115" cy="18" r="9" fill="#e6b455" stroke="#f7dc91" stroke-width="2.5"/></g>
<!-- legs / armored knees -->
<g transform="translate(256 1280)" stroke="#14242d" stroke-width="6.5"><path d="M-49-84 Q0-105 52-81 L61 160 L-27 173 L-60 10Z" fill="#132c39"/><path d="M-25-45 L29-56 L43 122 L-10 134Z" fill="#27576a"/><path d="M-20-34 L22-41 L30 61 L-13 68Z" fill="#6092a2" opacity=".45" stroke="none"/><path d="M-26 24 L35 16 L40 69 L-20 76Z" fill="#3b7287"/><path d="M-16 31 L27 25" stroke="#8ce3eb" stroke-width="3" opacity=".5"/></g>
<g transform="translate(768 1280)" stroke="#14242d" stroke-width="6"><path d="M-37-82 Q0-97 40-78 L46 155 L-29 166Z" fill="#34454f"/><path d="M-13-42 L20-50 L29 117 L-9 125Z" fill="#5a707c"/><rect x="-27" y="8" width="62" height="45" rx="8" fill="#263844"/><path d="M-18 17 L26 12" stroke="#829ba5" stroke-width="3"/></g>
<g transform="translate(1280 1280)" stroke="#14242d" stroke-width="6.5"><path d="M-49-84 Q0-105 52-81 L61 160 L-27 173 L-60 10Z" fill="#132c39"/><path d="M-25-45 L29-56 L43 122 L-10 134Z" fill="#27576a"/><path d="M-20-34 L22-41 L30 61 L-13 68Z" fill="#6092a2" opacity=".45" stroke="none"/><path d="M-26 24 L35 16 L40 69 L-20 76Z" fill="#3b7287"/></g>
<g transform="translate(1792 1280)" stroke="#14242d" stroke-width="6"><path d="M-37-82 Q0-97 40-78 L46 155 L-29 166Z" fill="#34454f"/><path d="M-13-42 L20-50 L29 117 L-9 125Z" fill="#5a707c"/><rect x="-27" y="8" width="62" height="45" rx="8" fill="#263844"/></g>
<!-- boots -->
<g transform="translate(256 1792)" stroke="#14242d" stroke-width="6.5"><path d="M-59-28 L55-39 L123 22 L92 64 L-67 55Z" fill="#0b1921"/><path d="M-45-14 L50-25 L91 9 L-55 27Z" fill="#203746" opacity=".8" stroke="none"/><path d="M30-15 L103 19" stroke="#49bfd1" stroke-width="6"/><path d="M-37 37 L90 45" stroke="#6e8490" stroke-width="3.5"/></g>
<g transform="translate(768 1792)" stroke="#14242d" stroke-width="6.5"><path d="M-59-28 L55-39 L123 22 L92 64 L-67 55Z" fill="#0b1921"/><path d="M-45-14 L50-25 L91 9 L-55 27Z" fill="#203746" opacity=".8" stroke="none"/><path d="M30-15 L103 19" stroke="#49bfd1" stroke-width="6"/><path d="M-37 37 L90 45" stroke="#6e8490" stroke-width="3.5"/></g>
<!-- coil rifle -->
<g transform="translate(1280 1792)" stroke="#14242d" stroke-width="7" stroke-linejoin="round">
 <path d="M-226-39 L188-51 L243-11 L214 33 L-79 49 L-132 117 L-205 108 L-166 43 L-240 30Z" fill="url(#gun)"/>
 <path d="M-205-26 L166-38" stroke="#f5ffff" stroke-width="4" opacity=".42"/>
 <path d="M20-43 L140-47 L153 9 L35 18Z" fill="#3daabd"/><path d="M34-32 L125-35" stroke="#b7f7fb" stroke-width="3.5"/>
 <path d="M187-50 L246-26 L279 0 L228 37 L190 32Z" fill="#d9a843" stroke="#f5d583" stroke-width="4"/>
 <path d="M-81 38 L-8 36 L-29 130 L-96 126Z" fill="#233641"/>
 <circle cx="7" cy="-3" r="25" fill="#4ccddd" opacity=".32" stroke="#baf7fb" stroke-width="4"/><circle cx="7" cy="-3" r="10" fill="#d9ffff" stroke="none" opacity=".8"/>
 <path d="M53-18 L125-23" stroke="#eefcff" stroke-width="4"/><rect x="62" y="19" width="102" height="8" rx="4" fill="#1b2a32" stroke="none"/>
</g>
<!-- tech accessory -->
<g transform="translate(1792 1792)" stroke="#14242d" stroke-width="6" stroke-linejoin="round"><path d="M-143-84 L-20-126 L103-75 L77 61 L-61 99Z" fill="#173746"/><path d="M-104-65 L-24-94 L70-63 L58 40 L-48 67Z" fill="#295c6d" opacity=".65" stroke="none"/><path d="M-89-55 L32-91" stroke="#49c5d5" stroke-width="8"/><path d="M61-61 L134-34 L108 32 L45 11Z" fill="#dda942" stroke="#f2d079" stroke-width="3"/><circle cx="-18" cy="26" r="19" fill="#4fcbdc" opacity=".42"/><circle cx="-18" cy="26" r="7" fill="#d8ffff" stroke="none"/></g>
</svg>