<svg xmlns="http://www.w3.org/2000/svg" width="2048" height="2048" viewBox="0 0 2048 2048"><defs><linearGradient id="d" x1="0" y1="0" x2="1" y2="1"><stop stop-color="#b9d1da"/><stop offset=".28" stop-color="#69818b"/><stop offset=".63" stop-color="#344750"/><stop offset="1" stop-color="#18242a"/></linearGradient><linearGradient id="dark" x1="0" y1="0" x2="0" y2="1"><stop stop-color="#415660"/><stop offset="1" stop-color="#17242a"/></linearGradient><radialGradient id="e"><stop stop-color="#fff"/><stop offset=".18" stop-color="#ffb8cc"/><stop offset=".45" stop-color="#dc557c"/><stop offset="1" stop-color="#4a1729"/></radialGradient><radialGradient id="c"><stop stop-color="#efffff"/><stop offset=".26" stop-color="#79edf2"/><stop offset="1" stop-color="#1d6870"/></radialGradient></defs>
<g transform="translate(256 256)" stroke="#142126" stroke-width="7" stroke-linejoin="round"><path d="M-210 58 Q-120-128 0-130 Q136-126 216 56 Q116 10 48 32 Q0 52-60 30 Q-124 8-210 58Z" fill="url(#d)"/><path d="M-160 40 Q-92-76 0-82 Q94-80 164 38 Q80 18 28 40 Q-26 58-74 40Z" fill="#4bcbd2" opacity=".18"/><path d="M-171 43 Q-102-85 0-91 Q103-85 174 43" fill="none" stroke="#b4d6de" stroke-width="4" opacity=".42"/><path d="M-92 14 L89 20" stroke="#5f7f88" stroke-width="3"/></g>
<g transform="translate(768 256)" stroke="#142126" stroke-width="6"><circle cx="-110" cy="12" r="66" fill="#1c292f"/><circle cx="-110" cy="12" r="50" fill="url(#e)"/><circle cx="-110" cy="12" r="17" fill="#ffe4eb" stroke="none"/><circle cx="0" cy="-32" r="45" fill="#1d2b31"/><circle cx="0" cy="-32" r="30" fill="url(#c)"/><circle cx="118" cy="20" r="78" fill="#1c292f"/><circle cx="118" cy="20" r="58" fill="url(#e)"/><circle cx="118" cy="20" r="19" fill="#ffdfe8" stroke="none"/></g>
<g transform="translate(1280 256)" stroke="#142126" stroke-width="6"><path d="M-164 40 L-250-52 L-224 98Z" fill="#445f6a"/><path d="M-148 32 L-223-39 L-208 70Z" fill="#73909b" opacity=".38" stroke="none"/><path d="M140 36 L250-72 L212 112Z" fill="#314b56"/><path d="M153 29 L226-51 L204 79Z" fill="#6d8994" opacity=".28" stroke="none"/></g>
<g transform="translate(1792 256)" stroke="#142126" stroke-width="6"><path d="M-70-116 L0-244 L72-106 L40 50 L-36 52Z" fill="#55d6de" opacity=".62"/><path d="M-42-108 L0-194 L41-102 L24 25 L-22 27Z" fill="#c4ffff" opacity=".22" stroke="none"/></g>
<g transform="translate(256 768)" stroke="#142126" stroke-width="6.5"><path d="M-92-96 L94-96 L72 110 L-64 110Z" fill="url(#dark)"/><path d="M-58 104 L58 104 L82 218 L-84 218Z" fill="#bd466a" opacity=".38"/><path d="M-38 106 L38 106 L56 188 L-58 188Z" fill="#55d4dc" opacity=".62"/><path d="M-60-69 L61-68" stroke="#8aa8b2" stroke-width="4"/></g>
<g transform="translate(768 768)" stroke-linecap="round"><path d="M-160 0 Q0 112 160 0" fill="none" stroke="#b64468" stroke-width="13" stroke-dasharray="28 25"/><path d="M-100 32 Q0 96 100 32" fill="none" stroke="#58d6de" stroke-width="7"/><path d="M-58 39 Q0 67 58 39" fill="none" stroke="#c0ffff" stroke-width="2.5" opacity=".7"/></g>
<g transform="translate(1280 768)" stroke="#142126" stroke-width="6.5"><path d="M-156-60 Q0-114 158-58 L126 58 Q0 94-132 56Z" fill="#26383f"/><path d="M-118-43 Q0-77 120-41 L98 34 Q0 57-104 34Z" fill="#718891" opacity=".25" stroke="none"/><rect x="-88" y="-26" width="176" height="48" rx="22" fill="#ba4569" opacity=".30"/></g>
<g transform="translate(1792 768)" stroke="#142126" stroke-width="6"><circle r="104" fill="#1d2c33"/><circle r="70" fill="#55d5dd" opacity=".24"/><circle r="46" fill="#173c42"/><circle r="28" fill="#cb4b71"/><circle r="11" fill="#ffe4ec" stroke="none"/></g>
<g transform="translate(256 1280)" stroke="#142126" stroke-width="6"><path d="M-174-26 L166-38 L218 2 L170 46 L-160 40Z" fill="#334a54"/><path d="M-153-15 L143-27" stroke="#83a4af" stroke-width="3" opacity=".55"/><path d="M-126-6 L114-16" stroke="#58d6de" stroke-width="7"/></g>
<g transform="translate(768 1280)" stroke="#142126" stroke-width="6"><path d="M-184-32 L176-40 L214 6 L170 50 L-172 42Z" fill="#293f49"/><path d="M-160-20 L151-29" stroke="#6e8c97" stroke-width="3" opacity=".5"/><path d="M-108-10 L122-18" stroke="#c34a70" stroke-width="7"/></g>
<g transform="translate(1280 1280)" stroke="#142126" stroke-width="6"><circle r="92" fill="#1f3138"/><circle r="63" fill="#3b6b72" opacity=".45"/><circle r="44" fill="url(#c)"/><circle r="18" fill="#fff"/></g>
<g transform="translate(1792 1280)" stroke="#142126" stroke-width="6"><path d="M-140-78 L138-86 L186 0 L130 84 L-132 74 L-184 0Z" fill="#1c292f"/><path d="M-112-54 L111-61 L149 0 L104 59 L-105 52 L-145 0Z" fill="#41545d" opacity=".36" stroke="none"/><path d="M-82-36 L84-42" stroke="#9dbac7" stroke-width="9"/></g>
<g transform="translate(256 1792)" stroke="#142126" stroke-width="6"><path d="M-110-112 L-32-182 L38-120 L22 78 L-60 112Z" fill="#425f69"/><path d="M-80-99 L-34-145 L12-108 L0 56 L-48 79Z" fill="#7895a0" opacity=".28" stroke="none"/></g>
<g transform="translate(768 1792)" stroke="#142126" stroke-width="6"><path d="M-64-128 L36-176 L104-82 L52 126 L-54 114Z" fill="#304a55"/><path d="M-40-109 L29-144 L72-76 L36 92 L-38 83Z" fill="#6b8792" opacity=".26" stroke="none"/></g>
<g transform="translate(1280 1792)" stroke="#142126" stroke-width="6"><path d="M-150-24 L136-38 L188 0 L140 46 L-138 40Z" fill="#b94267" opacity=".48"/><path d="M-124-13 L108-25" stroke="#f083a0" stroke-width="3"/><circle cx="90" cy="0" r="34" fill="#55d6de"/><circle cx="90" cy="0" r="13" fill="#eaffff" stroke="none"/></g>
<g transform="translate(1792 1792)"><path d="M-200 0 Q0-116 200 0 Q0 126-200 0Z" fill="#54d5dd" opacity=".16"/><path d="M-160 0 Q0-70 160 0" fill="none" stroke="#be456a" stroke-width="9"/><path d="M-110 0 Q0-42 110 0" fill="none" stroke="#c5ffff" stroke-width="3" opacity=".55"/></g></svg>