<svg xmlns="http://www.w3.org/2000/svg" width="1024" height="768" viewBox="0 0 1024 768"><defs><radialGradient id="v"><stop stop-color="#f7f0ff"/><stop offset=".24" stop-color="#dc62bc"/><stop offset=".54" stop-color="#876cff"/><stop offset="1" stop-color="#1d1835"/></radialGradient><linearGradient id="m" x1="0" y1="0" x2="0" y2="1"><stop stop-color="#343145"/><stop offset=".55" stop-color="#1a1926"/><stop offset="1" stop-color="#090a10"/></linearGradient></defs><g stroke="#08080e" stroke-width="8" stroke-linejoin="round"><path d="M110 352 L150 118 L874 118 L914 352 L860 398 L164 398Z" fill="url(#m)"/><path d="M250 324 L292 168 L390 168 L414 334Z" fill="#25283a"/><path d="M634 168 L732 168 L774 324 L610 334Z" fill="#25283a"/><path d="M284 190 L370 190 L384 300 L268 300Z" fill="#111522"/><path d="M654 190 L740 190 L756 300 L640 300Z" fill="#111522"/></g><g><circle cx="512" cy="270" r="126" fill="none" stroke="#4d456e" stroke-width="34"/><circle cx="512" cy="270" r="99" fill="none" stroke="#8b73ff" stroke-width="10" stroke-dasharray="28 18 8 14"/><circle cx="512" cy="270" r="70" fill="#11101a" stroke="#c15cab" stroke-width="8"/><circle cx="512" cy="270" r="42" fill="url(#v)"/><path d="M512 222 L533 251 L575 270 L533 289 L512 319 L491 289 L449 270 L491 251Z" fill="#090910"/><circle cx="512" cy="270" r="10" fill="#fff"/></g><g><path d="M166 432 L858 432 L906 608 L118 608Z" fill="#0d1018" stroke="#332d49" stroke-width="6"/><path d="M224 458 L800 458 L830 580 L194 580Z" fill="#121521"/><g stroke="#463c68" stroke-width="3"><path d="M264 468 L286 572 M376 462 L388 576 M512 460 L512 578 M648 462 L636 576 M760 468 L738 572"/><path d="M208 520 L816 520"/></g></g><g stroke="#111019" stroke-width="6"><path d="M294 392 L352 352 L392 416 L342 488 L282 448Z" fill="#343647"/><path d="M730 392 L672 352 L632 416 L682 488 L742 448Z" fill="#343647"/><path d="M308 398 L344 378 L366 418 L336 458 L302 438Z" fill="#8069f3"/><path d="M716 398 L680 378 L658 418 L688 458 L722 438Z" fill="#c058a8"/></g><g fill="#8b73ff"><circle cx="210" cy="454" r="5"/><circle cx="814" cy="454" r="5"/><circle cx="230" cy="584" r="5"/><circle cx="794" cy="584" r="5"/></g></svg>