<svg xmlns="http://www.w3.org/2000/svg" width="1600" height="900" viewBox="0 0 1600 900"><defs><linearGradient id="floor" x1="0" y1="0" x2="1" y2="1"><stop stop-color="#30373b"/><stop offset=".22" stop-color="#1c2328"/><stop offset=".65" stop-color="#10171c"/><stop offset="1" stop-color="#070b0e"/></linearGradient><linearGradient id="wall" x1="0" y1="0" x2="0" y2="1"><stop stop-color="#3b454b"/><stop offset=".18" stop-color="#20292f"/><stop offset=".7" stop-color="#0d1419"/><stop offset="1" stop-color="#06090c"/></linearGradient><linearGradient id="metal" x1="0" y1="0" x2="1" y2="1"><stop stop-color="#69767d"/><stop offset=".2" stop-color="#333e45"/><stop offset=".65" stop-color="#172027"/><stop offset="1" stop-color="#090d11"/></linearGradient><pattern id="grid" width="80" height="80" patternUnits="userSpaceOnUse"><path d="M0 0H80V80H0Z" fill="none" stroke="#536067" stroke-width="2" opacity=".15"/><path d="M40 0V80M0 40H80" stroke="#29343a" stroke-width="1" opacity=".25"/></pattern></defs><path d="M110 350 L1435 350 L1550 825 L35 825Z" fill="url(#floor)" stroke="#070b0e" stroke-width="16"/><path d="M118 360 L1425 360 L1535 806 L52 806Z" fill="url(#grid)" opacity=".75"/><path d="M112 86 L1432 86 L1436 350 L110 350Z" fill="url(#wall)" stroke="#070b0e" stroke-width="15"/><g stroke="#11191e" stroke-width="10"><path d="M173 98 L188 334"/><path d="M313 98 L328 334"/><path d="M458 98 L473 334"/><path d="M603 98 L618 334"/><path d="M751 98 L766 334"/><path d="M905 98 L920 334"/><path d="M1053 98 L1068 334"/><path d="M1205 98 L1220 334"/><path d="M1353 98 L1368 334"/></g><g stroke="#48545b" stroke-width="3" opacity=".28"><path d="M180 377 L256 800"/><path d="M330 377 L406 800"/><path d="M480 377 L556 800"/><path d="M630 377 L706 800"/><path d="M780 377 L856 800"/><path d="M930 377 L1006 800"/><path d="M1080 377 L1156 800"/><path d="M1230 377 L1306 800"/><path d="M80 430 L1490 430M80 520 L1490 520M80 615 L1490 615M80 710 L1490 710"/></g><path d="M1060 648 L1500 735 M1082 608 L1515 697" stroke="#182126" stroke-width="16"/><path d="M156 746 L820 746" stroke="#53d6de" stroke-width="5" opacity=".28"/><path d="M156 763 L820 763" stroke="#05090c" stroke-width="14"/><g fill="#53d6de"><rect x="220" y="122" width="96" height="18" rx="6"/><rect x="1080" y="122" width="96" height="18" rx="6"/></g><g fill="#ef6d43"><rect x="640" y="122" width="96" height="18" rx="6"/><rect x="1330" y="122" width="96" height="18" rx="6"/></g><g fill="none" stroke="#263239" stroke-linecap="round"><path d="M170 115 V295 Q170 330 205 330 H280" stroke-width="18"/><path d="M225 115 V295 Q225 330 260 330 H335" stroke-width="22"/><path d="M1260 115 V295 Q1260 330 1295 330 H1370" stroke-width="18"/><path d="M1315 115 V295 Q1315 330 1350 330 H1425" stroke-width="22"/></g><g transform="translate(785 520)"><circle r="145" fill="#151b20" stroke="#8b3d34" stroke-width="14"/><circle r="96" fill="#0b1014" stroke="#ef6d43" stroke-width="8"/><path d="M-120 0 H120 M0-120 V120" stroke="#ef6d43" stroke-width="9" opacity=".7"/><circle r="28" fill="#ef6d43" opacity=".55"/></g><g transform="translate(210 660) rotate(-3)"><path d="M0 0 H300 M0 40 H300" stroke="#1b252b" stroke-width="13"/><g stroke="#53626a" stroke-width="7"><path d="M0 0 V72"/><path d="M55 0 V72"/><path d="M110 0 V72"/><path d="M165 0 V72"/><path d="M220 0 V72"/><path d="M275 0 V72"/></g></g><g transform="translate(1060 660) rotate(-3)"><path d="M0 0 H300 M0 40 H300" stroke="#1b252b" stroke-width="13"/><g stroke="#53626a" stroke-width="7"><path d="M0 0 V72"/><path d="M55 0 V72"/><path d="M110 0 V72"/><path d="M165 0 V72"/><path d="M220 0 V72"/><path d="M275 0 V72"/></g></g><g transform="translate(1240 190)"><path d="M0 110 L18 16 L150 0 L170 105Z" fill="url(#metal)" stroke="#080d11" stroke-width="7"/><rect x="35" y="22" width="100" height="52" rx="7" fill="#071116" stroke="#ef6d43" stroke-width="4"/><path d="M48 39 H122 M48 53 H98 M48 67 H112" stroke="#ef6d43" stroke-width="4" opacity=".8"/></g><g transform="translate(250 535) scale(.85)"><path d="M0 22 L30 0 L138 0 L165 26 L150 112 L19 112Z" fill="url(#metal)" stroke="#080d11" stroke-width="7"/><path d="M23 34 H142 M31 82 H134" stroke="#65747c" stroke-width="5"/><rect x="62" y="33" width="45" height="30" rx="5" fill="#ef6d43"/></g></svg>