<svg xmlns="http://www.w3.org/2000/svg" width="1024" height="768" viewBox="0 0 1024 768"><defs><linearGradient id="m" x1="0" y1="0" x2="0" y2="1"><stop stop-color="#2f454e"/><stop offset=".52" stop-color="#14232a"/><stop offset="1" stop-color="#091217"/></linearGradient><linearGradient id="c" x1="0" y1="0" x2="1" y2="1"><stop stop-color="#b6fbff"/><stop offset=".5" stop-color="#52cfe4"/><stop offset="1" stop-color="#156878"/></linearGradient></defs><g stroke="#071015" stroke-width="7" stroke-linejoin="round"><path d="M112 338 L154 126 L870 126 L912 338 L858 388 L164 388Z" fill="url(#m)"/><path d="M210 344 L232 164 L352 164 L338 352Z" fill="#203139"/><path d="M686 164 L806 164 L824 344 L690 352Z" fill="#203139"/><path d="M250 184 L328 184 L318 318 L236 318Z" fill="#102028"/><path d="M708 184 L786 184 L802 318 L716 318Z" fill="#102028"/><path d="M356 160 Q512 54 668 160" fill="none" stroke="#50646e" stroke-width="28"/><path d="M374 162 Q512 80 650 162" fill="none" stroke="#62dbeb" stroke-width="7"/><path d="M418 178 L412 316 M468 152 L466 316 M556 152 L558 316 M606 178 L612 316" stroke="#4bb8c9" stroke-width="5" opacity=".6"/></g><g opacity=".9"><path d="M190 416 L834 416 L888 600 L136 600Z" fill="#0c171d" stroke="#29404a" stroke-width="6"/><path d="M252 438 L772 438 L806 566 L218 566Z" fill="#12242b"/><path d="M308 452 L334 550 M420 445 L432 558 M542 445 L536 558 M656 452 L630 550" stroke="#31505a" stroke-width="4"/><path d="M238 494 L786 494" stroke="#2a434d" stroke-width="4"/><g fill="#52d3e7"><circle cx="252" cy="455" r="5"/><circle cx="772" cy="455" r="5"/><circle cx="226" cy="568" r="5"/><circle cx="798" cy="568" r="5"/></g></g><g stroke="url(#c)" stroke-width="5" opacity=".62"><path d="M286 232 C322 262 330 302 318 348"/><path d="M738 232 C702 262 694 302 706 348"/><path d="M448 216 C430 264 430 316 448 360"/><path d="M576 216 C594 264 594 316 576 360"/></g><g fill="#b8fbff" opacity=".22"><ellipse cx="334" cy="350" rx="62" ry="18"/><ellipse cx="690" cy="350" rx="62" ry="18"/><ellipse cx="512" cy="370" rx="88" ry="20"/></g></svg>