<svg xmlns="http://www.w3.org/2000/svg" width="384" height="384" viewBox="0 0 384 384"><defs><linearGradient id="a" x1="0" y1="0" x2="1" y2="1"><stop stop-color="#3b5557"/><stop offset=".5" stop-color="#1a3032"/><stop offset="1" stop-color="#0a1718"/></linearGradient><linearGradient id="d" x1="0" y1="0" x2="0" y2="1"><stop stop-color="#72e5d3" stop-opacity=".74"/><stop offset="1" stop-color="#184d47" stop-opacity=".15"/></linearGradient></defs><ellipse cx="194" cy="335" rx="116" ry="23" fill="#000" opacity=".34"/><path d="M92 310 L110 79 L274 79 L292 310Z" fill="url(#a)" stroke="#0d191a" stroke-width="7"/><path d="M128 103 H256 L248 287 H136Z" fill="#101e20" stroke="#526d6f" stroke-width="5"/><g fill="#233739" stroke="#4d6769" stroke-width="3"><rect x="145" y="121" width="84" height="34" rx="4"/><rect x="145" y="166" width="84" height="34" rx="4"/><rect x="145" y="211" width="84" height="34" rx="4"/></g><g stroke="#65dece" stroke-width="4" opacity=".58"><path d="M157 132 H215 M157 143 H204"/><path d="M157 177 H215 M157 188 H195"/><path d="M157 222 H215 M157 233 H207"/></g><path d="M236 120 L272 103 L286 130 L251 151Z" fill="#163432" stroke="#5b8e87" stroke-width="4"/><circle cx="265" cy="128" r="7" fill="#7ce9d8"/><path d="M122 291 H260" stroke="#66ded0" stroke-width="5" opacity=".48"/><path d="M112 80 L143 55 H241 L272 80" fill="#253a3b"/><path d="M151 63 H233" stroke="url(#d)" stroke-width="9"/><path d="M118 309 L86 338 H298 L268 309Z" fill="#0d1719" stroke="#35484a" stroke-width="5"/></svg>