<svg xmlns="http://www.w3.org/2000/svg" width="2048" height="2048" viewBox="0 0 2048 2048"><defs><linearGradient id="m" x1="0" y1="0" x2="1" y2="1"><stop stop-color="#bcff94"/><stop offset=".5" stop-color="#3d7658"/><stop offset="1" stop-color="#18382d"/></linearGradient><radialGradient id="e"><stop stop-color="#e9ffe0"/><stop offset=".4" stop-color="#7cf4e7"/><stop offset="1" stop-color="#195c59"/></radialGradient></defs>
<g transform="translate(256 256)"><ellipse rx="128" ry="142" fill="#efd2bf"/><path d="M-112-12 Q-94-134 2-144 Q110-128 116-6 Q58-66 9-72 Q-50-44-112-12" fill="#335b49"/><path d="M-67 16 Q-30-8 1 18 Q-34 40-67 16M28 16 Q64-7 93 18 Q62 40 28 16" fill="#2a695e"/><path d="M-22 82 Q8 98 42 79" fill="none" stroke="#ba766c" stroke-width="10" stroke-linecap="round"/></g>
<g transform="translate(768 256)"><path d="M-132-66 Q-48-150 58-112 L10 62 L-94 104Z" fill="#3d6855"/><path d="M42-102 Q132-56 128 56 Q126 126 78 186 Q82 72 52 18Z" fill="#2b5142"/><circle cx="94" cy="116" r="42" fill="#3d6855"/><circle cx="106" cy="182" r="30" fill="#2d5947"/></g>
<g transform="translate(1280 256)"><path d="M-142-122 Q0-172 144-114 L164 118 Q6 180-154 112Z" fill="url(#m)"/><path d="M-98-88 L104-112 L126 62 L-88 88Z" fill="#e9ffe0" opacity=".13"/><path d="M-100-116 L-170-224 L-134-246 L-55-126Z" fill="#7cf4e7"/><path d="M98-116 L170-230 L208-200 L126-92Z" fill="#a8f07a"/></g>
<g transform="translate(1792 256)"><path d="M-126-78 Q0-112 126-74 L112 98 Q2 146-132 90Z" fill="#255b45"/><path d="M-88 52 L-118 228 L-30 188 L-2 72Z" fill="#2b654c"/><path d="M38 68 L82 220 L146 194 L102 44Z" fill="#367a59"/><rect x="-84" y="-12" width="168" height="21" rx="9" fill="#7cf4e7" opacity=".55"/></g>
<g transform="translate(256 768)"><path d="M-24-40 Q42-56 158-10 L150 36 Q48 72-30 34Z" fill="#336d50"/><path d="M95-24 L155-5" stroke="#a8f07a" stroke-width="12"/></g><g transform="translate(768 768)"><path d="M-18-31 Q61-43 154-8 L150 26 Q66 51-18 28Z" fill="#edd2bf"/><path d="M80-17 L142-4" stroke="#7cf4e7" stroke-width="10"/></g><g transform="translate(1280 768)"><path d="M-24-40 Q44-56 158-10 L150 36 Q50 72-30 34Z" fill="#2d654c"/></g><g transform="translate(1792 768)"><path d="M-18-31 Q61-43 154-8 L150 26 Q66 51-18 28Z" fill="#edd2bf"/><path d="M72-18 L144-4" stroke="#a8f07a" stroke-width="10"/></g>
<g transform="translate(256 1280)"><path d="M-44-80 Q0-99 48-76 L56 158 L-26 168 L-55 10Z" fill="#17372d"/><path d="M-18-44 L27-52 L39 122 L-8 130Z" fill="#2c5b48"/></g><g transform="translate(768 1280)"><path d="M-33-77 Q0-90 37-73 L42 154 L-26 161Z" fill="#315847"/><path d="M-10-39 L19-46 L26 116 L-7 122Z" fill="#477762"/></g><g transform="translate(1280 1280)"><path d="M-44-80 Q0-99 48-76 L56 158 L-26 168 L-55 10Z" fill="#17372d"/><path d="M-18-44 L27-52 L39 122 L-8 130Z" fill="#2c5b48"/></g><g transform="translate(1792 1280)"><path d="M-33-77 Q0-90 37-73 L42 154 L-26 161Z" fill="#315847"/><path d="M-10-39 L19-46 L26 116 L-7 122Z" fill="#477762"/></g>
<g transform="translate(256 1792)"><path d="M-56-24 L54-34 L118 23 L88 60 L-64 52Z" fill="#10261f"/><path d="M26-12 L96 20" stroke="#a8f07a" stroke-width="10"/></g><g transform="translate(768 1792)"><path d="M-56-24 L54-34 L118 23 L88 60 L-64 52Z" fill="#10261f"/><path d="M26-12 L96 20" stroke="#7cf4e7" stroke-width="10"/></g>
<g transform="translate(1280 1792)"><path d="M-205-42 L142-48 L220-8 L176 44 L-76 50 L-116 112 L-188 102 L-150 48 L-218 24Z" fill="#24483e" stroke="#0d201b" stroke-width="14"/><circle cx="115" cy="-1" r="60" fill="url(#e)" stroke="#e9ffe0" stroke-width="12"/><circle cx="115" cy="-1" r="28" fill="#143a34"/><path d="M148-34 L224-17 L254 9 L210 43 L150 38Z" fill="#7cf4e7"/><rect x="-20" y="52" width="116" height="15" rx="7" fill="#a8f07a"/></g>
<g transform="translate(1792 1792)"><path d="M-190-118 L-116-136 L-64 174 L-144 224Z" fill="#2b654c"/><path d="M-50-130 L22-118 L108 208 L30 234Z" fill="#367a59"/><path d="M74-88 L142-204 L184-170 L116-60Z" fill="#a8f07a"/><path d="M-126-92 L-190-196 L-152-220 L-82-112Z" fill="#7cf4e7"/></g></svg>