<svg xmlns="http://www.w3.org/2000/svg" width="512" height="512" viewBox="0 0 512 512"><defs><linearGradient id="hair" x1="0" y1="0" x2="1" y2="1"><stop stop-color="#ddcab7"/><stop offset=".34" stop-color="#baa28e"/><stop offset=".68" stop-color="#88715f"/><stop offset="1" stop-color="#53433a"/></linearGradient><linearGradient id="skin" x1="0" y1="0" x2=".8" y2="1"><stop stop-color="#ffe7d8"/><stop offset=".65" stop-color="#e6c2b2"/><stop offset="1" stop-color="#c79f91"/></linearGradient><linearGradient id="coat" x1="0" y1="0" x2="1" y2="1"><stop stop-color="#627275"/><stop offset=".45" stop-color="#344347"/><stop offset="1" stop-color="#162125"/></linearGradient><radialGradient id="emit"><stop stop-color="#effffc"/><stop offset=".25" stop-color="#85eee3"/><stop offset=".65" stop-color="#50cabc"/><stop offset="1" stop-color="#174b47"/></radialGradient></defs><g stroke="#172522" stroke-width="3.5" stroke-linejoin="round" stroke-linecap="round"><path d="M63 512 Q76 358 182 322 Q255 297 337 320 Q448 354 461 512Z" fill="url(#coat)"/><path d="M94 505 Q109 388 191 350 L242 411 L207 512Z" fill="#2f4549"/><path d="M419 507 Q397 385 326 348 L270 410 L307 512Z" fill="#283b3f"/><path d="M126 381 L75 306 L97 286 L158 365Z" fill="#4cc8bb"/><path d="M365 367 L417 289 L442 310 L391 387Z" fill="#719d95"/><path d="M169 379 L228 350 L254 408 L184 432Z" fill="#465b5e"/><circle cx="348" cy="418" r="38" fill="url(#emit)"/><circle cx="348" cy="418" r="15" fill="#173d39"/><ellipse cx="253" cy="230" rx="105" ry="121" fill="url(#skin)"/><path d="M149 230 Q145 104 252 79 Q366 90 364 225 Q310 164 263 155 Q209 179 149 230Z" fill="url(#hair)"/><path d="M168 143 Q221 77 296 100 L250 266 L184 291Z" fill="#d2baa5"/><path d="M304 102 Q362 132 365 221 L327 271 L310 157Z" fill="#776253"/><path d="M175 148 Q227 111 293 113" fill="none" stroke="#f1dfcf" stroke-width="5" opacity=".46"/><path d="M190 231 Q218 209 244 232 Q218 254 190 231 M268 231 Q299 207 326 232 Q299 254 268 231" fill="#2d5050" stroke="none"/><path d="M201 229 L236 233 M279 230 L316 233" stroke="#87d9d1" stroke-width="2.2"/><circle cx="218" cy="233" r="6" fill="#65e0d4" stroke="#ddfff9" stroke-width="1.5"/><circle cx="299" cy="233" r="6" fill="#65e0d4" stroke="#ddfff9" stroke-width="1.5"/><path d="M253 252 L248 271 L260 275" fill="none" stroke="#ad8077" stroke-width="2.2"/><path d="M229 297 Q257 311 286 294" fill="none" stroke="#9c625f" stroke-width="3.1"/><path d="M321 124 L353 141 L343 172 L312 158Z" fill="#48c3b7" stroke="#dff8f2" stroke-width="2.8"/><path d="M325 132 L344 141" stroke="#fff" stroke-width="2"/><path d="M337 95 Q405 128 398 223 Q393 297 349 360" fill="none" stroke="#705b4d" stroke-width="34"/><path d="M352 184 Q390 231 359 273" fill="none" stroke="#ab917b" stroke-width="20"/><path d="M355 260 Q390 294 361 335" fill="none" stroke="#685347" stroke-width="17"/><path d="M356 326 L369 351" stroke="#4ccabc" stroke-width="4"/></g></svg>