<svg xmlns="http://www.w3.org/2000/svg" width="2048" height="2048" viewBox="0 0 2048 2048">
<defs>
<linearGradient id="body" x1="0" y1="0" x2="1" y2="1">
 <stop offset="0" stop-color="#2f4b4f"/><stop offset=".28" stop-color="#182a2d"/><stop offset=".62" stop-color="#182128"/><stop offset="1" stop-color="#070b0e"/>
</linearGradient>
<linearGradient id="metal" x1="0" y1="0" x2="1" y2="1">
 <stop offset="0" stop-color="#f2f4f4"/><stop offset=".12" stop-color="#9eaaad"/><stop offset=".45" stop-color="#566068"/><stop offset=".72" stop-color="#202830"/><stop offset="1" stop-color="#0b0f13"/>
</linearGradient>
<linearGradient id="skin" x1="0" y1="0" x2=".8" y2="1">
 <stop offset="0" stop-color="#ffe9dc"/><stop offset=".55" stop-color="#e0c4b8"/><stop offset="1" stop-color="#b9897d"/>
</linearGradient>
<linearGradient id="hair" x1="0" y1="0" x2="1" y2="1">
 <stop offset="0" stop-color="#ffffff"/><stop offset=".18" stop-color="#b8a69b"/><stop offset=".58" stop-color="#aab1ba"/><stop offset="1" stop-color="#4e5663"/>
</linearGradient>
<radialGradient id="glow"><stop offset="0" stop-color="#ffffff"/><stop offset=".2" stop-color="#54ddcf"/><stop offset=".55" stop-color="#54ddcf" stop-opacity=".4"/><stop offset="1" stop-color="#54ddcf" stop-opacity="0"/></radialGradient>
<linearGradient id="gold" x1="0" y1="0" x2="1" y2="1"><stop stop-color="#f5df9e"/><stop offset=".35" stop-color="#b98945"/><stop offset=".7" stop-color="#6b4528"/><stop offset="1" stop-color="#23180f"/></linearGradient>
</defs><g transform="translate(256 256)"><ellipse cx="0" cy="0" rx="119" ry="135" fill="url(#skin)" stroke="#171d20" stroke-width="5" opacity="1"/><path d="M-116-17 Q-106-139 0-149 Q109-140 119-14 Q72-72 21-89 Q-41-67-116-17Z" fill="#8a756b" stroke="#171d20" stroke-width="5" stroke-linejoin="round" stroke-linecap="round" opacity="1"/><path d="M-101-66 Q-40-142 55-121 L9 47 L-77 56Z" fill="#b6a399" stroke="#171d20" stroke-width="4" stroke-linejoin="round" stroke-linecap="round" opacity="1"/><path d="M-85-82 Q-23-126 62-111" fill="none" stroke="#dbc9bf" stroke-width="4" stroke-linecap="round" opacity="0.52"/><path d="M-68 10 Q-34-13-5 13 Q-35 36-68 10 M25 12 Q58-10 89 15 Q57 37 25 12" fill="#2d3c43" stroke="none" stroke-width="0" stroke-linejoin="round" stroke-linecap="round" opacity="1"/><circle cx="-33" cy="14" r="6" fill="#54ddcf" stroke="#dffffb" stroke-width="2" opacity="1"/><circle cx="58" cy="15" r="6" fill="#54ddcf" stroke="#dffffb" stroke-width="2" opacity="1"/><path d="M-20 80 Q8 94 38 78" fill="none" stroke="#9c6461" stroke-width="4" stroke-linecap="round" opacity="1"/><circle cx="91" cy="-58" r="15" fill="#54ddcf" stroke="#dffffb" stroke-width="3" opacity="1"/></g><g transform="translate(768 256)"><path d="M-110-111 Q-17-165 67-107 Q120-61 94 30 Q75 103 15 174 Q51 73 16-10 Q-23-98-110-111Z" fill="#7a665e" stroke="#171d20" stroke-width="5" stroke-linejoin="round" stroke-linecap="round" opacity="1"/><path d="M55-68 Q114-38 116 39 Q106 127 48 184 Q76 93 56 6Z" fill="#9d887c" stroke="#171d20" stroke-width="4" stroke-linejoin="round" stroke-linecap="round" opacity="1"/><path d="M-78-83 Q-10-125 52-99" fill="none" stroke="#c2ada2" stroke-width="4" stroke-linecap="round" opacity="0.48"/><path d="M70 50 Q107 85 72 138 Q44 172 20 126 Q53 115 70 50Z" fill="#6f5d56" stroke="#171d20" stroke-width="4" stroke-linejoin="round" stroke-linecap="round" opacity="1"/><path d="M66 66 Q93 94 68 125" fill="none" stroke="#54ddcf" stroke-width="4" stroke-linecap="round" opacity="0.6"/></g><g transform="translate(1280 256)"><path d="M-160-120 Q0-174 162-116 L178 118 Q5 185-171 106Z" fill="url(#body)" stroke="#11191e" stroke-width="7" stroke-linejoin="round" stroke-linecap="round" opacity="1"/><path d="M-138-97 Q0-142 138-93 L146 87 Q6 134-147 84Z" fill="#2f4b4f" stroke="none" stroke-width="0" stroke-linejoin="round" stroke-linecap="round" opacity="0.22"/><path d="M-133-84 Q-17-126 113-88" fill="none" stroke="#dbe3e7" stroke-width="3" stroke-linecap="round" opacity="0.2"/><path d="M-115 34 L115 8" fill="none" stroke="#bb8a45" stroke-width="5" stroke-linecap="round" opacity="0.72"/><path d="M-128-44 L-29-64 L-4 11 L-111 31Z" fill="#11171b" stroke="none" stroke-width="0" stroke-linejoin="round" stroke-linecap="round" opacity="0.75"/><path d="M28-58 L118-69 L139 18 L43 29Z" fill="#30383d" stroke="#69767c" stroke-width="3" stroke-linejoin="round" stroke-linecap="round" opacity="1"/><rect x="44" y="-42" width="68" height="15" rx="4" fill="#54ddcf" stroke="none" stroke-width="0" opacity="0.55"/><path d="M-124 67 Q-16 98 122 64" fill="none" stroke="#606b72" stroke-width="3" stroke-linecap="round" opacity="0.4"/><circle cx="-113" cy="-25" r="24" fill="#54ddcf" stroke="#dffffb" stroke-width="3" opacity="1"/><circle cx="117" cy="-22" r="18" fill="#54ddcf" stroke="#dffffb" stroke-width="3" opacity="1"/><path d="M-93 10 L77 36" fill="none" stroke="#54ddcf" stroke-width="4" stroke-linecap="round" opacity="0.6"/></g><g transform="translate(1792 256)"><path d="M-148-78 Q0-120 149-75 L133 118 Q-3 163-155 96Z" fill="#182a2d" stroke="#11191e" stroke-width="7" stroke-linejoin="round" stroke-linecap="round" opacity="1"/><rect x="-119" y="-20" width="238" height="30" rx="10" fill="#0a0f12" stroke="#202a30" stroke-width="3" opacity="1"/><rect x="-27" y="-34" width="54" height="58" rx="8" fill="url(#gold)" stroke="#d9b36c" stroke-width="3" opacity="1"/><path d="M-113 57 L-172 185 L-31 120Z" fill="#2f4b4f" stroke="#11191e" stroke-width="5" stroke-linejoin="round" stroke-linecap="round" opacity="1"/><path d="M75 45 L156 168 L59 121Z" fill="#151e24" stroke="#11191e" stroke-width="5" stroke-linejoin="round" stroke-linecap="round" opacity="1"/><path d="M-101 72 L-139 155" fill="none" stroke="#54ddcf" stroke-width="3" stroke-linecap="round" opacity="0.55"/><path d="M-145 15 Q0 80 145 17 L118 158 Q0 194-126 151Z" fill="#171d20" stroke="#11191e" stroke-width="4" stroke-linejoin="round" stroke-linecap="round" opacity="0.7"/></g><g transform="translate(256 768)"><path d="M-40-56 Q46-78 176-16 L162 53 Q49 97-49 47Z" fill="url(#body)" stroke="#11191e" stroke-width="6" stroke-linejoin="round" stroke-linecap="round" opacity="1"/><path d="M-15-38 Q55-53 141-19 L132 28 Q55 57-25 36Z" fill="#2f4b4f" stroke="none" stroke-width="0" stroke-linejoin="round" stroke-linecap="round" opacity="0.25"/><path d="M91-43 L178-11 L159 50 L80 25Z" fill="url(#metal)" stroke="#11191e" stroke-width="4" stroke-linejoin="round" stroke-linecap="round" opacity="1"/><path d="M8 8 L106 12" fill="none" stroke="#54ddcf" stroke-width="3" stroke-linecap="round" opacity="0.7"/></g><g transform="translate(768 768)"><path d="M-31-38 Q60-52 170-10 L158 38 Q63 73-35 35Z" fill="url(#skin)" stroke="#11191e" stroke-width="5" stroke-linejoin="round" stroke-linecap="round" opacity="1"/><path d="M72-22 L151-6 L141 28 L67 17Z" fill="url(#metal)" stroke="#11191e" stroke-width="4" stroke-linejoin="round" stroke-linecap="round" opacity="1"/><path d="M78-13 L135-3" fill="none" stroke="#f5f7f8" stroke-width="2" stroke-linecap="round" opacity="0.6"/><circle cx="105" cy="18" r="8" fill="#54ddcf" stroke="none" stroke-width="0" opacity="1"/></g><g transform="translate(1280 768)"><path d="M-40-56 Q46-78 176-16 L162 53 Q49 97-49 47Z" fill="url(#body)" stroke="#11191e" stroke-width="6" stroke-linejoin="round" stroke-linecap="round" opacity="1"/><path d="M-15-38 Q55-53 141-19 L132 28 Q55 57-25 36Z" fill="#2f4b4f" stroke="none" stroke-width="0" stroke-linejoin="round" stroke-linecap="round" opacity="0.25"/><path d="M91-43 L178-11 L159 50 L80 25Z" fill="url(#metal)" stroke="#11191e" stroke-width="4" stroke-linejoin="round" stroke-linecap="round" opacity="1"/><path d="M8 8 L106 12" fill="none" stroke="#54ddcf" stroke-width="3" stroke-linecap="round" opacity="0.7"/></g><g transform="translate(1792 768)"><path d="M-31-38 Q60-52 170-10 L158 38 Q63 73-35 35Z" fill="url(#skin)" stroke="#11191e" stroke-width="5" stroke-linejoin="round" stroke-linecap="round" opacity="1"/><path d="M72-22 L151-6 L141 28 L67 17Z" fill="url(#metal)" stroke="#11191e" stroke-width="4" stroke-linejoin="round" stroke-linecap="round" opacity="1"/><path d="M78-13 L135-3" fill="none" stroke="#f5f7f8" stroke-width="2" stroke-linecap="round" opacity="0.6"/><circle cx="105" cy="18" r="8" fill="#54ddcf" stroke="none" stroke-width="0" opacity="1"/></g><g transform="translate(256 1280)"><path d="M-60-91 Q0-115 65-87 L75 164 L-40 181 L-72 18Z" fill="#182a2d" stroke="#11191e" stroke-width="7" stroke-linejoin="round" stroke-linecap="round" opacity="1"/><path d="M-29-55 L35-64 L52 126 L-19 141Z" fill="#2f4b4f" stroke="none" stroke-width="0" stroke-linejoin="round" stroke-linecap="round" opacity="0.6"/><rect x="-36" y="17" width="86" height="60" rx="10" fill="url(#metal)" stroke="#11191e" stroke-width="4" opacity="1"/><path d="M-24 30 L35 24" fill="none" stroke="#54ddcf" stroke-width="3" stroke-linecap="round" opacity="0.45"/></g><g transform="translate(768 1280)"><path d="M-48-85 Q0-104 50-81 L62 168 L-38 178Z" fill="url(#metal)" stroke="#11191e" stroke-width="6" stroke-linejoin="round" stroke-linecap="round" opacity="1"/><path d="M-21-44 L26-52 L40 130 L-15 140Z" fill="#56636b" stroke="none" stroke-width="0" stroke-linejoin="round" stroke-linecap="round" opacity="0.75"/><rect x="-31" y="16" width="76" height="56" rx="9" fill="#20282d" stroke="#11191e" stroke-width="4" opacity="1"/><path d="M-20 28 L34 23" fill="none" stroke="#bb8a45" stroke-width="3" stroke-linecap="round" opacity="0.55"/></g><g transform="translate(1280 1280)"><path d="M-60-91 Q0-115 65-87 L75 164 L-40 181 L-72 18Z" fill="#182a2d" stroke="#11191e" stroke-width="7" stroke-linejoin="round" stroke-linecap="round" opacity="1"/><path d="M-29-55 L35-64 L52 126 L-19 141Z" fill="#2f4b4f" stroke="none" stroke-width="0" stroke-linejoin="round" stroke-linecap="round" opacity="0.6"/><rect x="-36" y="17" width="86" height="60" rx="10" fill="url(#metal)" stroke="#11191e" stroke-width="4" opacity="1"/><path d="M-24 30 L35 24" fill="none" stroke="#54ddcf" stroke-width="3" stroke-linecap="round" opacity="0.45"/></g><g transform="translate(1792 1280)"><path d="M-48-85 Q0-104 50-81 L62 168 L-38 178Z" fill="url(#metal)" stroke="#11191e" stroke-width="6" stroke-linejoin="round" stroke-linecap="round" opacity="1"/><path d="M-21-44 L26-52 L40 130 L-15 140Z" fill="#56636b" stroke="none" stroke-width="0" stroke-linejoin="round" stroke-linecap="round" opacity="0.75"/><rect x="-31" y="16" width="76" height="56" rx="9" fill="#20282d" stroke="#11191e" stroke-width="4" opacity="1"/><path d="M-20 28 L34 23" fill="none" stroke="#bb8a45" stroke-width="3" stroke-linecap="round" opacity="0.55"/></g><g transform="translate(256 1792)"><path d="M-76-33 L59-46 L144 24 L109 73 L-88 63Z" fill="#0a0e11" stroke="#11191e" stroke-width="7" stroke-linejoin="round" stroke-linecap="round" opacity="1"/><path d="M-57-17 L50-30 L104 13 L-71 34Z" fill="#252e34" stroke="none" stroke-width="0" stroke-linejoin="round" stroke-linecap="round" opacity="0.92"/><rect x="23" y="-19" width="89" height="17" rx="6" fill="#bb8a45" stroke="none" stroke-width="0" opacity="0.7"/><path d="M-39 42 L103 51" fill="none" stroke="#667178" stroke-width="4" stroke-linecap="round" opacity="0.7"/></g><g transform="translate(768 1792)"><path d="M-76-33 L59-46 L144 24 L109 73 L-88 63Z" fill="#0a0e11" stroke="#11191e" stroke-width="7" stroke-linejoin="round" stroke-linecap="round" opacity="1"/><path d="M-57-17 L50-30 L104 13 L-71 34Z" fill="#252e34" stroke="none" stroke-width="0" stroke-linejoin="round" stroke-linecap="round" opacity="0.92"/><rect x="23" y="-19" width="89" height="17" rx="6" fill="#bb8a45" stroke="none" stroke-width="0" opacity="0.7"/><path d="M-39 42 L103 51" fill="none" stroke="#667178" stroke-width="4" stroke-linecap="round" opacity="0.7"/></g><g transform="translate(1280 1792)"><path d="M-230-49 L185-54 L249-14 L230 42 L-75 55 L-126 126 L-205 113 L-165 47 L-238 31Z" fill="url(#metal)" stroke="#10161a" stroke-width="7" stroke-linejoin="round" stroke-linecap="round" opacity="1"/><circle cx="8" cy="2" r="36" fill="#10171b" stroke="#0d171a" stroke-width="4" opacity="1"/><circle cx="8" cy="2" r="28" fill="#54ddcf" stroke="#dffffb" stroke-width="3" opacity="0.85"/><circle cx="8" cy="2" r="10" fill="#dffffb" stroke="none" stroke-width="0" opacity="1"/><rect x="41" y="-39" width="127" height="34" rx="6" fill="#202a30" stroke="#10161a" stroke-width="4" opacity="1"/><rect x="58" y="-31" width="93" height="12" rx="4" fill="#54ddcf" stroke="none" stroke-width="0" opacity="0.55"/><path d="M188-48 L248-27 L273 0 L225 37 L188 33Z" fill="url(#gold)" stroke="#10161a" stroke-width="4" stroke-linejoin="round" stroke-linecap="round" opacity="1"/><path d="M-188 20 L-55 16" fill="none" stroke="#54ddcf" stroke-width="3" stroke-linecap="round" opacity="0.5"/></g><g transform="translate(1792 1792)"><path d="M-190-90 Q0-135 190-87 L171 161 Q2 200-177 151Z" fill="#171d21" stroke="#11191e" stroke-width="6" stroke-linejoin="round" stroke-linecap="round" opacity="0.9"/><path d="M-152-55 Q0-90 154-52" fill="none" stroke="#54ddcf" stroke-width="4" stroke-linecap="round" opacity="0.65"/><circle cx="-90" cy="25" r="21" fill="#54ddcf" stroke="#dffffb" stroke-width="3" opacity="1"/><circle cx="92" cy="22" r="17" fill="#54ddcf" stroke="#dffffb" stroke-width="3" opacity="1"/></g></svg>