<svg xmlns="http://www.w3.org/2000/svg" width="2048" height="2048" viewBox="0 0 2048 2048"><defs><linearGradient id="metal" x1="0" y1="0" x2="1" y2="1"><stop stop-color="#e8ecee"/><stop offset=".14" stop-color="#8e7778"/><stop offset=".5" stop-color="#3d474e"/><stop offset=".78" stop-color="#1b2228"/><stop offset="1" stop-color="#070b0e"/></linearGradient><linearGradient id="armor" x1="0" y1="0" x2="1" y2="1"><stop stop-color="#5d676e"/><stop offset=".24" stop-color="#30383e"/><stop offset=".65" stop-color="#161c21"/><stop offset="1" stop-color="#090d10"/></linearGradient><linearGradient id="accent" x1="0" y1="0" x2="1" y2="1"><stop stop-color="#d64764"/><stop offset=".42" stop-color="#73152c"/><stop offset="1" stop-color="#250d10"/></linearGradient><radialGradient id="glow"><stop stop-color="#fff"/><stop offset=".18" stop-color="#d64764"/><stop offset=".55" stop-color="#d64764" stop-opacity=".45"/><stop offset="1" stop-color="#d64764" stop-opacity="0"/></radialGradient><linearGradient id="bio" x1="0" y1="0" x2="1" y2="1"><stop stop-color="#d7c8c2"/><stop offset=".22" stop-color="#987e7a"/><stop offset=".52" stop-color="#5d4346"/><stop offset=".8" stop-color="#2b171d"/><stop offset="1" stop-color="#10080b"/></linearGradient></defs><g transform="translate(256 256)"><path d="M-121-78 Q-62-151 23-133 Q103-117 132-43 L98 54 L34 121 L-55 108 L-124 34Z" fill="url(#bio)" stroke="#1a0e12" stroke-width="7"/><path d="M-96-45 L-10-91 L89-50 L73 19 L-8 50 L-96 20Z" fill="#d2c1bb" stroke="#2b171b" stroke-width="5"/><circle cx="-38" cy="-2" r="15" fill="url(#glow)" stroke="#ff9aab" stroke-width="3"/><circle cx="47" cy="-4" r="15" fill="url(#glow)" stroke="#ff9aab" stroke-width="3"/><path d="M-62 44 L-29 79 L7 47 L41 80 L75 42" fill="#6f182b" stroke="#2b1119" stroke-width="4"/></g><g transform="translate(768 256)"><path d="M-160-121 Q-73-188 12-144 Q121-184 169-79 L149 102 Q58 169-44 146 Q-132 129-177 63Z" fill="url(#bio)" stroke="#1a0e12" stroke-width="8"/><path d="M-125-70 Q0-116 126-64 L106 70 Q0 121-113 75Z" fill="#4b2c32" stroke="#1a0e12" stroke-width="5" opacity=".7"/><path d="M-97-45 Q0 13 102-40" fill="none" stroke="#d34a62" stroke-width="6" opacity=".65"/><circle cx="-88" cy="28" r="14" fill="url(#glow)"/><circle cx="87" cy="19" r="14" fill="url(#glow)"/></g><g transform="translate(1280 256)"><path d="M-139-81 Q0-124 142-77 L127 112 Q0 163-150 91Z" fill="#45272d" stroke="#1a0e12" stroke-width="7"/><path d="M-111 26 L-167 174 L-35 116Z" fill="url(#bio)" stroke="#1a0e12" stroke-width="5"/><path d="M78 25 L158 161 L54 116Z" fill="url(#bio)" stroke="#1a0e12" stroke-width="5"/><path d="M-105 55 L110 29" fill="none" stroke="#c8405a" stroke-width="4" opacity=".6"/></g><g transform="translate(1792 256)"><path d="M-39-53 Q35-84 111-35 L188 71 L149 108 L68 31 L-31 50Z" fill="url(#bio)" stroke="#1a0e12" stroke-width="7"/><path d="M95 31 L198 112 L171 145 L69 68Z" fill="#342026" stroke="#1a0e12" stroke-width="5"/><path d="M-2 5 L135 74" fill="none" stroke="#d94e65" stroke-width="4" opacity=".65"/></g><g transform="translate(256 768)"><path d="M-39-53 Q35-84 111-35 L188 71 L149 108 L68 31 L-31 50Z" fill="url(#bio)" stroke="#1a0e12" stroke-width="7"/><path d="M95 31 L198 112 L171 145 L69 68Z" fill="#342026" stroke="#1a0e12" stroke-width="5"/><path d="M-2 5 L135 74" fill="none" stroke="#d94e65" stroke-width="4" opacity=".65"/></g><g transform="translate(768 768)"><path d="M-58-89 Q0-111 60-84 L71 160 L-42 178 L-69 17Z" fill="url(#bio)" stroke="#1a0e12" stroke-width="7"/><path d="M-29-48 L31-56 L49 120 L-21 139Z" fill="#5a363d" stroke="#1a0e12" stroke-width="4"/><path d="M-19 15 L35 103" fill="none" stroke="#d74860" stroke-width="4" opacity=".55"/></g><g transform="translate(1280 768)"><path d="M-58-89 Q0-111 60-84 L71 160 L-42 178 L-69 17Z" fill="url(#bio)" stroke="#1a0e12" stroke-width="7"/><path d="M-29-48 L31-56 L49 120 L-21 139Z" fill="#5a363d" stroke="#1a0e12" stroke-width="4"/><path d="M-19 15 L35 103" fill="none" stroke="#d74860" stroke-width="4" opacity=".55"/></g><g transform="translate(1792 768)"><circle cx="0" cy="0" r="79" fill="url(#glow)" stroke="#f09aac" stroke-width="5" opacity=".75"/><circle cx="0" cy="0" r="40" fill="#9f2840" stroke="#ff8da1" stroke-width="4"/><path d="M-55-9 Q0-58 55-9" fill="none" stroke="#ffd7dd" stroke-width="3" opacity=".5"/></g><g transform="translate(768 1280)"><path d="M-185-18 C-125-108 -49-111 2-41 C62 42 116 63 187 27 C124 85 45 112-29 68 C-91 31-129 13-185-18Z" fill="url(#bio)" stroke="#1a0e12" stroke-width="7"/><path d="M-143-23 C-77-69 -14-50 47 19 C96 72 137 65 165 48" fill="none" stroke="#d64b63" stroke-width="4" opacity=".65"/></g></svg>